<?xml version="1.0" standalone="no"?>
<!DOCTYPE svg PUBLIC "-//W3C//DTD SVG 20010904//EN"
 "http://www.w3.org/TR/2001/REC-SVG-20010904/DTD/svg10.dtd">
<svg version="1.0" xmlns="http://www.w3.org/2000/svg"
 width="1298.000000pt" height="843.000000pt" viewBox="0 0 1298.000000 843.000000"
 preserveAspectRatio="xMidYMid meet">
<metadata>
Created by potrace 1.13, written by Peter Selinger 2001-2015
</metadata>
<g transform="translate(0.000000,843.000000) scale(0.100000,-0.100000)"
fill="#000000" stroke="none">
<path d="M3053 8403 c-30 -46 -46 -62 -56 -56 -6 3 -7 1 -3 -5 9 -15 -22 -62
-40 -62 -8 0 -13 -3 -12 -7 2 -5 -6 -23 -17 -41 -17 -28 -21 -30 -27 -15 -6
17 -7 17 -7 0 -1 -10 4 -27 9 -38 8 -13 8 -24 0 -37 -9 -14 -10 -13 -4 8 5 22
5 23 -9 10 -26 -26 -108 -194 -103 -213 2 -9 0 -15 -5 -11 -5 3 -9 -5 -9 -18
0 -13 -11 -35 -25 -50 -14 -15 -25 -31 -24 -35 3 -18 -2 -27 -9 -17 -5 8 -13
4 -26 -13 -18 -25 -18 -25 2 -14 17 9 19 8 15 -9 -3 -11 -10 -17 -15 -14 -6 4
-7 -2 -3 -16 5 -15 4 -20 -4 -16 -6 4 -11 15 -12 24 0 14 -2 13 -9 -3 -12 -28
-11 -56 1 -30 7 14 8 8 4 -24 -8 -62 -19 -73 -26 -26 -6 36 -7 35 -6 -15 1
-30 -5 -66 -12 -79 -18 -33 -31 -78 -37 -131 -2 -25 -10 -58 -16 -73 -6 -15
-8 -31 -4 -35 12 -11 26 21 26 60 0 20 4 40 10 43 5 3 7 20 4 38 -3 23 -2 27
4 12 8 -18 9 -17 16 8 3 16 4 33 0 40 -4 7 -3 8 2 4 10 -10 13 -77 3 -71 -12
7 -28 -79 -19 -95 7 -12 10 -9 10 14 1 17 5 39 9 49 7 18 8 18 14 2 4 -10 4
-30 1 -44 -4 -21 -3 -24 5 -12 9 13 11 11 12 -7 1 -13 2 -29 3 -35 1 -7 -2
-16 -7 -19 -12 -8 1 -82 12 -75 5 3 5 -13 1 -37 -5 -23 -5 -60 0 -82 4 -22 8
-32 9 -23 2 27 27 10 38 -25 5 -18 15 -31 22 -29 7 1 10 -1 8 -5 -3 -5 1 -39
8 -78 9 -43 10 -74 4 -80 -5 -5 -9 -14 -9 -20 0 -5 5 -3 10 5 7 11 10 3 10
-30 1 -45 11 -108 25 -145 6 -17 5 -18 -5 -5 -10 12 -11 10 -5 -10 3 -14 8
-47 10 -75 l4 -50 -14 43 c-7 24 -12 61 -11 83 2 21 -1 39 -6 39 -6 0 -7 14
-3 33 7 30 6 31 -9 12 -18 -24 -20 -49 -5 -77 6 -12 13 -41 16 -66 3 -25 9
-57 15 -71 6 -14 12 -41 15 -60 3 -30 2 -33 -12 -21 -19 16 -20 1 -1 -25 17
-24 26 -165 11 -165 -5 0 -4 -4 4 -9 11 -7 12 -17 2 -54 -14 -60 -15 -58 14
-53 18 3 25 0 25 -10 0 -8 -4 -12 -10 -9 -9 6 -5 -16 8 -40 3 -5 6 -26 6 -47
0 -21 4 -38 9 -38 11 0 5 -73 -8 -83 -6 -5 0 -7 13 -4 25 6 31 -17 7 -27 -8
-3 -15 0 -15 6 0 7 -16 -5 -35 -26 -38 -42 -39 -44 -26 -64 6 -10 11 -6 19 17
14 40 23 40 16 1 -8 -35 -1 -37 26 -10 16 16 17 20 5 20 -9 0 -15 9 -14 23 1
17 2 18 6 4 4 -16 6 -15 24 5 l20 23 -5 -50 c-4 -34 -3 -44 3 -30 9 19 10 19
10 -2 1 -13 -4 -23 -11 -23 -6 0 -8 -3 -4 -7 4 -5 14 1 22 11 18 25 18 17 -1
-27 -14 -35 -35 -57 -35 -38 0 5 5 12 10 14 6 3 5 4 -2 3 -15 -3 -32 12 -40
34 -3 10 -6 7 -11 -9 -3 -13 -3 -21 0 -18 7 8 32 -16 26 -26 -3 -4 1 -15 8
-23 10 -13 14 -12 31 3 16 15 18 15 13 1 -4 -9 -13 -19 -21 -22 -7 -3 -11 -12
-8 -21 4 -11 0 -15 -16 -15 -12 0 -18 4 -15 10 4 6 10 8 14 6 4 -3 8 1 8 9 0
17 -13 20 -22 5 -4 -6 -10 -8 -15 -5 -5 3 -8 -3 -7 -14 0 -11 4 -19 7 -19 18
2 30 -3 30 -13 0 -6 -9 -9 -20 -6 -19 5 -24 -3 -21 -30 1 -7 -7 -10 -19 -8
-11 2 -20 -1 -20 -7 0 -5 7 -8 15 -5 8 4 17 2 21 -4 3 -6 13 -8 21 -5 8 3 11
1 8 -5 -4 -5 -16 -9 -28 -7 -14 2 -22 -2 -22 -12 0 -8 -8 -26 -18 -40 -13 -19
-17 -21 -17 -7 0 9 5 17 10 17 6 0 10 5 10 12 0 8 -5 7 -16 -4 -14 -14 -14
-21 -2 -64 11 -36 12 -61 5 -94 -5 -25 -9 -58 -8 -75 1 -16 3 -74 4 -128 1
-57 4 -89 9 -77 5 13 15 19 32 18 13 -1 22 -6 20 -10 -3 -4 0 -8 6 -8 6 0 1
-14 -11 -31 -13 -19 -18 -34 -12 -38 6 -3 12 -30 15 -59 4 -41 2 -55 -11 -62
-9 -4 -13 -12 -9 -16 4 -4 14 -2 22 5 11 9 15 9 19 -1 10 -25 7 26 -5 83 -10
51 -10 60 5 77 9 10 14 22 10 27 -5 4 -2 5 5 1 7 -4 10 -12 7 -17 -4 -5 -2 -9
2 -9 5 0 8 -16 9 -35 1 -47 -14 -45 -19 3 -3 35 -4 34 -5 -9 -1 -26 1 -61 5
-80 5 -29 7 -30 15 -14 6 15 7 14 2 -5 -12 -49 2 -157 23 -179 8 -8 13 -25 10
-38 -2 -12 0 -23 4 -23 5 0 9 -11 9 -24 0 -12 5 -38 11 -55 9 -24 14 -29 20
-19 7 11 11 10 19 -2 8 -13 10 -12 10 3 0 10 4 16 9 12 5 -3 12 -1 16 5 3 5
11 10 16 10 6 0 7 -4 4 -10 -3 -5 1 -10 9 -10 19 0 20 -5 5 -32 -8 -14 -8 -23
0 -31 8 -8 11 -5 11 12 0 12 4 19 10 16 6 -4 8 -10 5 -15 -3 -4 0 -10 6 -12 8
-3 7 -9 -3 -19 -15 -15 -13 -39 3 -39 4 0 5 8 2 17 -6 15 -5 16 9 3 19 -18 3
-33 -27 -23 -18 5 -19 4 -5 -12 8 -11 10 -16 3 -12 -7 4 -24 5 -38 1 -19 -5
-23 -10 -15 -19 7 -9 3 -17 -16 -31 -14 -10 -31 -24 -38 -29 -6 -6 -24 -21
-41 -34 -16 -13 -22 -21 -13 -18 12 4 15 2 11 -9 -8 -23 -27 -11 -34 22 l-7
29 -1 -33 c-1 -19 -5 -31 -11 -27 -5 3 -10 -3 -10 -14 0 -10 -5 -21 -12 -23
-8 -3 -8 -9 0 -24 11 -19 11 -19 12 0 0 11 3 17 6 14 3 -4 -2 -31 -12 -62 -18
-57 -36 -70 -62 -44 -7 7 -12 8 -12 2 0 -5 8 -14 19 -21 32 -20 15 -109 -31
-155 -20 -20 -22 -16 -9 28 5 17 6 37 1 43 -7 12 -30 -81 -30 -122 0 -11 -8
-26 -17 -34 -10 -8 -12 -12 -5 -8 16 8 15 -5 -3 -29 -14 -19 -15 -18 -15 11 0
18 -4 35 -10 38 -6 4 -10 -7 -10 -26 0 -19 -7 -37 -17 -45 -15 -10 -16 -15 -5
-25 10 -11 12 -10 13 1 0 8 5 4 10 -9 6 -15 6 -27 0 -30 -13 -8 -4 -65 15
-104 17 -31 16 -31 -1 -17 -17 14 -18 13 -12 -3 4 -10 7 -23 7 -29 0 -6 6 -8
13 -5 14 5 19 -34 6 -43 -5 -3 -4 -12 1 -20 8 -12 10 -11 10 5 1 20 1 20 15 1
20 -27 19 -11 -1 19 -19 28 -8 34 13 8 14 -19 57 -100 47 -90 -7 6 -34 -17
-34 -28 0 -4 7 -5 15 -1 17 6 19 -2 5 -24 -5 -8 -10 -10 -11 -5 0 6 -4 1 -9
-10 -9 -18 -9 -18 -8 5 2 49 -2 103 -8 97 -4 -3 -6 -24 -6 -45 1 -50 -38 -102
-77 -102 -14 -1 -37 -7 -50 -14 -27 -15 -25 -17 47 -31 33 -7 41 -33 8 -27 -9
2 -16 -2 -16 -8 0 -5 6 -10 13 -10 8 0 7 -4 -3 -10 -8 -5 -31 -7 -50 -4 -35 5
-35 5 -10 -10 14 -8 29 -12 34 -9 5 4 6 1 2 -5 -4 -7 -24 -12 -44 -12 -28 0
-33 -3 -22 -10 12 -8 11 -10 -7 -10 -13 0 -23 -4 -23 -9 0 -5 -13 -13 -28 -19
-35 -12 -39 -40 -5 -36 13 1 21 -2 17 -7 -3 -5 0 -9 7 -9 20 0 -4 -20 -30 -25
-12 -2 -19 0 -16 6 4 5 -5 4 -19 -2 -30 -14 -42 -40 -24 -54 14 -10 13 -45 -1
-45 -4 0 -18 -22 -31 -50 -13 -27 -27 -47 -31 -44 -5 3 -6 -1 -4 -9 3 -7 -5
-19 -20 -27 -14 -7 -25 -22 -25 -34 0 -20 0 -20 20 0 32 32 50 45 50 37 0 -5
-9 -16 -20 -26 -11 -10 -21 -31 -22 -49 0 -18 -2 -37 -3 -43 -2 -5 -4 -26 -5
-45 -2 -33 -3 -33 -10 -10 -6 20 -8 14 -9 -27 -1 -65 -18 -83 -77 -83 -24 0
-44 -3 -44 -8 0 -4 17 -6 38 -4 31 3 39 0 39 -13 0 -9 -6 -14 -14 -10 -7 3
-20 8 -30 12 -32 13 -2 -17 38 -38 22 -11 45 -31 51 -44 6 -14 15 -25 19 -25
5 0 6 -7 3 -15 -4 -8 -1 -15 6 -15 7 0 9 -8 5 -19 -3 -11 -1 -22 5 -26 13 -8
13 -42 -1 -51 -7 -4 -9 0 -5 13 4 12 1 25 -9 33 -10 8 -15 9 -15 1 0 -6 5 -11
11 -11 6 0 8 -8 5 -17 -6 -18 6 -46 18 -43 3 0 14 -4 24 -9 13 -7 14 -13 6
-21 -8 -8 -14 -9 -18 -1 -4 6 -16 11 -27 11 -10 0 -18 5 -16 11 1 6 -5 14 -13
16 -13 4 -13 3 0 -6 8 -6 10 -11 4 -11 -18 0 -24 12 -13 26 8 10 6 13 -8 12
-10 0 -27 3 -38 7 l-20 8 20 -22 c11 -13 41 -34 67 -47 37 -19 45 -27 41 -44
-3 -11 -10 -20 -17 -20 -6 0 -4 -5 4 -11 13 -9 13 -10 0 -6 -9 2 -15 16 -15
35 0 18 -2 32 -5 32 -14 0 -28 -24 -22 -39 5 -13 3 -14 -9 -4 -12 10 -17 8
-27 -8 -12 -18 -14 -18 -29 -4 -8 9 -18 13 -21 10 -4 -3 0 -10 8 -16 11 -6 12
-11 4 -16 -6 -5 -10 -16 -8 -26 1 -9 -7 -22 -18 -28 -12 -7 -18 -18 -15 -29 3
-14 0 -17 -12 -13 -11 4 -10 1 4 -10 23 -19 39 -22 29 -5 -4 7 -3 8 5 4 16
-10 8 -19 -38 -42 -38 -18 -59 -40 -26 -28 21 8 19 2 -7 -20 -16 -14 -20 -15
-15 -3 3 9 0 21 -8 27 -14 12 -18 8 -41 -35 -5 -11 -18 -19 -27 -17 -12 2 -17
-4 -17 -20 0 -30 -35 -99 -55 -111 -9 -5 -15 -22 -15 -42 0 -34 -12 -46 -25
-25 -3 6 -1 10 6 10 7 0 10 2 7 5 -10 10 -59 -15 -52 -26 5 -8 9 -8 14 1 8 14
30 5 30 -11 0 -6 -4 -7 -10 -4 -6 3 -7 -1 -4 -9 4 -9 1 -16 -6 -16 -10 0 -10
-3 -1 -14 8 -10 9 -16 1 -21 -5 -3 -10 -5 -11 -3 0 2 -3 14 -5 27 -6 34 -8 34
-30 9 -15 -18 -16 -20 -1 -9 16 13 25 2 10 -13 -5 -4 -9 -12 -9 -17 -1 -5 -2
-12 -3 -15 0 -4 -8 -1 -17 7 -9 8 -18 9 -22 3 -4 -5 -18 -15 -32 -22 -25 -11
-25 -11 5 -7 17 3 24 2 18 -1 -9 -4 -10 -11 -4 -22 6 -11 5 -26 -3 -41 -12
-21 -14 -22 -20 -6 -4 10 -2 23 4 29 14 14 13 26 -3 26 -21 0 -65 -111 -81
-205 -2 -11 -7 -29 -11 -40 -5 -16 -5 -17 4 -5 15 21 14 9 -4 -34 -8 -20 -22
-36 -30 -36 -8 0 -15 -5 -15 -11 0 -5 4 -7 10 -4 20 13 0 -49 -22 -65 -4 -3
-8 -26 -10 -52 -2 -36 -7 -45 -19 -43 -11 2 -15 -3 -12 -18 3 -14 -6 -34 -26
-56 -17 -19 -33 -43 -37 -53 -3 -10 -10 -18 -15 -18 -6 0 -8 -4 -4 -10 8 -13
35 -1 29 14 -3 7 3 19 12 27 15 12 16 11 10 -11 -28 -99 -51 -166 -60 -172 -6
-4 -20 -14 -31 -23 -19 -16 -19 -16 5 -5 l25 11 -25 -20 c-20 -16 -26 -17 -28
-6 -2 8 -7 15 -12 15 -5 0 -7 -6 -4 -14 3 -8 -4 -16 -20 -20 -20 -5 -40 -33
-39 -56 0 -3 -20 -25 -46 -49 -25 -24 -39 -41 -31 -36 8 4 -23 -29 -69 -73
l-84 -80 33 -7 c24 -5 29 -10 19 -16 -12 -7 -12 -9 0 -9 8 0 1 -10 -16 -22
-30 -23 -33 -27 -33 -49 0 -6 -7 -8 -16 -5 -9 4 -13 2 -8 -5 4 -8 -1 -9 -17
-4 -13 4 -26 9 -29 12 -2 2 17 24 43 49 36 33 43 44 28 44 -10 0 -26 -11 -35
-25 -9 -14 -33 -41 -54 -60 -34 -32 -42 -34 -104 -35 -37 0 -70 -4 -73 -10 -4
-6 6 -10 22 -10 20 0 24 -3 14 -9 -11 -7 -10 -10 5 -13 11 -3 0 -8 -26 -12
-63 -11 -146 -54 -177 -92 -14 -19 -30 -31 -35 -28 -4 3 -8 -6 -8 -20 0 -27
-24 -37 -33 -13 -4 9 -7 9 -18 -1 -11 -10 -10 -12 3 -12 9 0 18 -7 22 -15 3
-9 0 -15 -9 -15 -16 0 -24 -28 -23 -77 l1 -33 820 0 c769 0 821 1 833 18 17
21 18 36 2 26 -7 -4 -8 -3 -4 4 4 7 14 12 22 12 8 0 14 6 14 13 0 9 3 8 9 -2
5 -7 6 -23 3 -34 -3 -12 -7 -16 -10 -9 -2 7 -8 10 -12 7 -5 -3 -7 -12 -3 -20
4 -13 99 -15 704 -15 384 0 699 3 699 6 0 8 -57 91 -96 139 -17 22 -39 54 -48
70 -9 17 -25 44 -36 60 -11 17 -27 44 -35 60 -9 17 -27 48 -40 70 -27 44 -108
206 -150 299 -42 95 -91 245 -120 367 -14 63 -30 130 -35 150 -21 78 -5 249
25 271 6 5 6 8 1 8 -6 0 -1 7 10 16 10 8 12 13 4 9 -9 -4 -8 -1 3 8 10 9 18
18 17 21 -1 11 50 74 65 79 9 4 6 -11 -11 -49 -59 -134 -53 -309 18 -534 51
-160 299 -623 420 -785 5 -5 50 -66 101 -135 l93 -125 1208 -3 1209 -2 171
177 c283 292 536 544 631 628 50 44 113 101 140 127 28 25 63 56 78 68 23 19
26 25 15 39 -10 13 -10 14 1 4 10 -8 21 -6 50 13 69 45 83 56 99 83 9 15 51
56 92 90 41 34 93 79 115 100 119 116 365 273 491 315 28 9 51 22 51 29 1 6 3
29 6 49 4 27 2 35 -7 32 -7 -3 -18 5 -24 18 -6 13 -11 18 -11 11 -1 -7 -28 2
-70 24 -38 21 -67 41 -65 45 3 4 -5 8 -17 8 -19 0 -129 66 -129 77 0 2 5 1 12
-3 7 -4 8 -3 4 4 -4 6 -12 9 -19 6 -7 -2 -47 18 -88 46 -41 28 -127 86 -192
128 -65 43 -114 81 -110 86 4 4 -1 4 -12 0 -15 -6 -17 -4 -12 10 5 14 3 16
-12 11 -13 -4 -24 1 -35 17 -9 13 -20 22 -24 22 -4 -1 -6 2 -4 7 1 6 -3 9 -10
7 -17 -3 -87 34 -115 62 -13 11 -23 18 -23 14 0 -4 -11 6 -25 22 -19 21 -25
38 -23 62 2 17 0 32 -4 32 -4 0 -8 5 -8 11 0 5 5 7 10 4 6 -3 10 -1 10 4 0 6
-5 11 -10 11 -7 0 -7 6 0 19 14 26 13 31 -5 25 -11 -5 -15 1 -15 20 0 14 4 26
9 26 6 0 3 12 -5 28 -18 35 -18 51 1 58 8 4 15 11 15 17 0 7 -4 7 -12 -1 -20
-20 -30 -14 -16 10 7 13 13 32 13 43 0 14 7 20 21 20 29 0 54 23 47 42 -4 10
-2 14 5 9 6 -3 13 -2 16 3 3 4 -3 8 -14 7 -11 0 -20 4 -20 9 0 6 9 9 19 9 12
-1 17 4 14 12 -3 8 -10 11 -17 8 -16 -8 91 94 144 138 25 20 74 50 109 68 73
37 76 37 166 -33 17 -13 66 -45 110 -72 44 -26 87 -54 96 -62 9 -7 18 -11 21
-8 3 3 16 -5 30 -17 13 -13 40 -29 59 -37 65 -26 351 -121 366 -121 8 0 11 -4
8 -10 -3 -6 4 -10 17 -10 18 0 20 2 9 9 -14 9 9 8 107 -4 17 -2 32 0 32 6 0 5
5 9 11 9 5 0 7 -4 4 -10 -10 -15 5 -12 22 6 9 8 24 13 34 11 12 -3 19 0 19 9
0 8 6 14 13 14 7 0 28 11 47 25 35 26 56 33 45 15 -4 -6 1 -7 11 -3 12 4 14 8
6 11 -15 5 3 32 22 32 6 0 4 -5 -4 -11 -13 -9 -13 -10 0 -6 8 2 15 10 16 18 1
27 17 50 30 45 7 -3 16 0 20 6 4 7 3 8 -4 4 -7 -4 -12 -4 -12 -1 0 7 37 61 65
94 11 13 14 21 6 16 -11 -6 -13 -3 -7 16 4 13 11 61 16 106 8 76 12 87 50 135
49 62 62 71 133 98 42 16 59 28 68 50 8 16 17 26 23 23 5 -3 6 -1 2 6 -4 6 -2
27 4 47 14 42 -2 125 -31 163 -10 13 -16 27 -13 32 3 5 2 9 -3 8 -26 -5 -24 4
7 23 19 12 38 21 43 20 4 -1 6 1 5 5 -2 5 21 31 49 59 80 80 93 151 39 208
-31 34 -46 75 -46 132 0 25 29 40 96 49 62 8 164 38 164 48 0 4 6 7 14 7 21 0
71 45 97 87 18 28 22 49 21 109 0 45 -6 84 -16 101 -8 16 -23 48 -34 73 -11
25 -33 75 -50 111 -19 41 -29 76 -26 90 4 16 3 20 -3 12 -11 -16 -38 51 -27
68 4 7 3 9 -3 6 -10 -6 -38 42 -29 50 3 3 -4 14 -15 26 -20 22 -26 43 -9 32 6
-3 10 -2 10 3 0 6 -7 12 -15 16 -8 3 -15 11 -15 18 0 10 3 9 9 -1 7 -11 13
-12 23 -4 7 6 24 14 38 17 19 6 21 5 10 -3 -13 -9 -13 -11 2 -11 9 0 19 4 22
9 4 5 14 8 24 6 9 -1 28 4 41 12 14 9 21 10 16 3 -5 -9 -1 -10 16 -5 33 10 35
13 19 28 -10 9 -11 9 -6 0 4 -8 1 -13 -8 -13 -9 0 -16 4 -16 10 0 12 41 50 54
50 6 0 4 4 -4 10 -9 5 -19 5 -26 -1 -8 -7 -10 -2 -6 17 3 15 1 25 -4 22 -5 -3
-18 -2 -29 2 -12 5 -26 3 -35 -5 -8 -7 -25 -16 -38 -20 -23 -7 -23 -6 -6 14
10 11 22 17 27 14 6 -3 7 -1 4 5 -4 5 -16 8 -26 5 -10 -3 -22 0 -25 6 -4 6
-13 11 -19 11 -7 0 -3 -7 8 -16 17 -13 18 -16 5 -24 -8 -5 -24 -10 -35 -10
-16 0 -17 2 -5 9 8 6 19 7 25 5 5 -3 2 1 -7 9 -10 8 -14 18 -10 22 4 4 -3 3
-15 -4 -29 -15 -32 -14 -28 9 3 16 0 18 -26 13 -28 -5 -29 -4 -29 33 0 41 34
146 41 126 2 -7 4 17 4 53 0 36 -3 65 -7 65 -5 0 -8 12 -8 28 0 21 2 24 10 12
6 -9 10 -10 10 -3 0 6 -4 15 -10 18 -5 3 -10 13 -10 21 0 9 5 12 11 8 8 -4 9
0 4 15 -7 24 14 93 27 85 4 -3 5 3 1 12 -5 14 -3 16 11 11 11 -4 15 -3 11 4
-4 6 2 13 14 16 12 3 21 13 21 24 0 22 16 34 23 17 3 -7 6 -3 6 9 1 12 7 24
14 26 9 4 9 6 0 6 -7 1 -10 7 -7 15 3 8 -5 23 -17 35 -22 21 -23 23 -11 104 7
46 12 108 13 138 0 29 4 63 8 74 5 11 4 28 -1 38 -5 9 -5 17 -1 17 4 0 8 28 8
63 0 34 2 103 5 152 4 50 2 96 -3 103 -5 6 -7 34 -5 62 3 27 1 47 -3 44 -7 -4
-25 46 -35 101 -2 11 -8 29 -13 40 -5 11 -27 56 -48 100 -21 44 -37 84 -35 88
1 5 -1 6 -6 3 -4 -2 -17 12 -28 32 -10 20 -25 43 -32 50 -21 23 -34 53 -28 68
3 8 2 13 -3 10 -15 -10 -20 47 -5 61 12 12 6 21 -36 63 -51 50 -58 64 -40 75
12 7 8 89 -5 119 -5 10 -3 39 4 65 10 42 8 117 -4 130 -3 2 -6 -22 -6 -55 -1
-32 -4 -49 -6 -36 -2 12 -8 22 -13 22 -4 0 -16 20 -26 44 -10 24 -22 42 -27
39 -5 -3 -4 4 3 16 6 12 16 18 22 15 7 -4 8 -2 4 5 -6 9 -11 9 -22 0 -17 -14
-16 -15 -43 38 -11 23 -25 45 -31 48 -6 4 -8 11 -4 16 3 5 0 16 -6 24 -6 8 -9
18 -6 23 8 13 -12 28 -46 36 -15 3 -30 15 -33 26 -4 11 -11 17 -17 14 -7 -4
-8 -2 -4 5 4 6 12 8 18 5 7 -4 8 -2 4 4 -4 6 -2 22 5 34 l11 23 -21 -22 c-12
-13 -24 -23 -27 -23 -2 0 1 10 7 23 11 19 11 21 -3 9 -20 -16 -37 3 -19 21 9
9 10 7 5 -8 -8 -21 -6 -20 15 7 11 15 10 17 -7 13 -26 -5 -56 28 -49 54 3 13
1 18 -8 15 -7 -3 -16 0 -21 7 -4 8 -3 10 4 5 19 -11 14 12 -6 32 -10 10 -24
33 -32 52 -19 50 -41 74 -52 58 -6 -9 -7 -6 -4 8 4 13 -1 27 -14 39 -11 10
-17 22 -13 28 3 5 2 7 -4 4 -10 -6 -53 36 -53 52 0 5 -7 12 -16 15 -13 5 -14
9 -4 21 11 13 -319 15 -2789 15 l-2801 0 -17 -27z m1377 -3773 c1 11 4 9 13
-5 14 -24 53 -34 44 -12 -7 20 22 16 37 -5 12 -16 122 -79 128 -73 2 2 26 -16
53 -41 27 -24 54 -44 58 -44 5 0 5 -5 1 -12 -5 -8 -2 -9 9 -5 11 4 20 -1 28
-16 9 -18 9 -20 -2 -9 -7 6 -18 12 -23 12 -11 -1 23 -24 35 -25 3 0 13 -8 23
-17 10 -10 23 -18 31 -18 7 0 15 -7 19 -15 3 -8 12 -15 21 -15 8 0 15 -5 15
-10 0 -6 12 -29 28 -51 15 -23 36 -57 48 -75 11 -19 23 -32 26 -28 3 3 8 -17
9 -44 2 -28 1 -48 -3 -45 -12 7 -9 -82 3 -94 7 -7 7 -13 0 -17 -5 -4 -8 -13
-4 -21 4 -11 1 -13 -13 -8 -13 5 -15 3 -9 -7 11 -18 7 -100 -5 -115 -7 -9 -7
-21 0 -39 16 -44 12 -89 -15 -142 -14 -27 -25 -57 -25 -66 0 -9 -5 -20 -12
-24 -7 -4 -8 -3 -4 4 5 8 1 10 -9 5 -9 -3 -13 -9 -8 -12 17 -11 24 -43 12 -57
-6 -8 -9 -30 -7 -49 2 -19 0 -35 -5 -35 -5 0 -6 -12 -3 -27 5 -22 4 -25 -5
-13 -8 12 -9 9 -5 -12 3 -15 1 -28 -5 -30 -5 -2 -14 -19 -19 -38 -5 -19 -15
-57 -21 -83 -10 -37 -16 -46 -28 -42 -12 5 -13 3 -4 -6 20 -20 -27 -106 -51
-92 -6 4 -5 -1 3 -10 12 -16 11 -20 -7 -38 -23 -20 -31 -45 -11 -34 6 4 5 -2
-3 -14 -7 -12 -16 -21 -20 -21 -5 0 -8 -7 -8 -15 0 -8 -5 -15 -10 -15 -6 0 -9
-6 -8 -12 2 -7 -2 -12 -9 -11 -7 2 -10 -3 -7 -11 3 -8 -2 -17 -13 -20 -10 -3
-26 -19 -35 -36 -9 -16 -22 -30 -29 -30 -7 0 -5 9 7 23 l19 22 -22 -18 c-12
-11 -20 -24 -17 -31 5 -12 -41 -62 -54 -60 -23 4 -32 -11 -26 -41 6 -35 -10
-55 -29 -36 -14 14 -60 15 -52 1 4 -6 15 -8 26 -5 25 8 24 -1 -2 -28 -12 -12
-19 -16 -15 -9 9 16 -4 15 -27 -2 -19 -15 -6 -33 15 -20 7 4 8 3 4 -5 -4 -6
-16 -9 -27 -6 -21 7 -27 -10 -6 -19 6 -3 -3 -3 -22 0 -28 5 -33 3 -28 -9 4
-10 -2 -17 -15 -20 -13 -4 -17 -10 -12 -18 4 -8 3 -10 -4 -5 -7 4 -12 2 -12
-5 0 -8 -4 -8 -15 1 -12 10 -15 10 -15 -4 0 -18 -15 -22 -25 -6 -3 6 -12 10
-18 9 -9 0 -9 -2 1 -6 20 -8 14 -23 -10 -24 -13 0 -17 -3 -10 -6 18 -7 -40
-61 -85 -80 -18 -7 -33 -18 -33 -23 0 -6 -10 -10 -22 -10 -27 -1 -67 -21 -67
-34 0 -6 -8 -11 -17 -12 -9 -1 -26 -12 -38 -23 -12 -12 -25 -21 -29 -21 -10 0
-91 -53 -95 -62 -4 -9 -32 -11 -32 -3 0 2 7 26 16 52 16 45 15 135 0 233 -3
14 -8 52 -11 85 -4 33 -14 80 -22 104 -13 41 -12 48 4 80 10 20 34 50 53 68
19 18 38 36 42 40 65 69 86 97 81 109 -5 12 7 19 30 15 4 0 7 4 7 11 0 6 3 8
6 5 4 -4 23 14 42 40 30 39 33 48 23 65 -7 11 -8 17 -2 14 11 -7 61 83 61 111
0 10 11 45 24 78 13 33 31 86 41 118 10 31 22 57 26 57 5 0 6 7 3 15 -4 8 -2
15 3 15 14 0 30 84 33 165 1 39 3 81 5 95 2 14 4 33 4 43 1 10 6 15 11 12 6
-3 10 3 10 14 0 10 -5 21 -10 23 -6 2 -11 19 -13 38 -1 19 -5 37 -8 40 -3 3
-9 25 -12 49 -3 25 -2 39 2 32 6 -10 10 -9 15 4 12 31 6 58 -24 110 -57 100
-87 227 -65 280 17 40 48 77 89 102 22 14 51 37 63 50 12 14 26 22 31 19 5 -3
18 2 28 10 14 11 15 17 6 20 -6 3 -9 10 -6 16 4 6 10 5 15 -3 7 -12 9 -11 9 1z"/>
<path d="M8523 1609 c-7 -7 -47 -13 -89 -15 -91 -4 -141 -22 -244 -83 -83 -50
-308 -206 -325 -225 -5 -7 -32 -30 -60 -51 -27 -22 -54 -44 -60 -51 -5 -6 -37
-33 -70 -60 -32 -27 -66 -56 -75 -64 -9 -8 -30 -26 -46 -39 -134 -110 -502
-472 -878 -862 l-148 -154 2023 -3 c1112 -1 2024 0 2027 3 9 8 -65 359 -103
485 -7 25 -23 79 -35 120 -12 41 -26 84 -30 95 -4 11 -14 36 -21 55 -20 56
-72 165 -81 168 -4 2 -8 8 -8 12 0 17 -95 135 -145 181 -103 94 -254 182 -427
250 -34 13 -55 27 -51 33 4 6 -1 5 -10 -3 -11 -9 -21 -10 -29 -4 -22 16 -274
84 -282 75 -3 -3 -16 0 -29 6 -12 6 -71 18 -130 27 -60 8 -117 20 -127 25 -10
6 -36 10 -57 10 -21 0 -65 7 -97 15 -31 8 -85 17 -119 19 -34 2 -75 9 -92 16
-16 6 -39 9 -51 6 -13 -4 -27 0 -34 9 -15 18 -42 19 -58 3 -10 -10 -14 -10
-20 0 -6 9 -11 9 -19 1z"/>
</g>
</svg>
